<svg id="visual" viewBox="0 0 960 540" width="960" height="540" xmlns="http://www.w3.org/2000/svg" xmlns:xlink="http://www.w3.org/1999/xlink" version="1.1"><rect x="0" y="0" width="960" height="540" fill="#f8f8f8"></rect><path d="M0 117L16 130C32 143 64 169 96 177.5C128 186 160 177 192 174.8C224 172.7 256 177.3 288 174.7C320 172 352 162 384 164.2C416 166.3 448 180.7 480 171.5C512 162.3 544 129.7 576 117.3C608 105 640 113 672 138.5C704 164 736 207 768 204.7C800 202.3 832 154.7 864 146.7C896 138.7 928 170.3 944 186.2L960 202L960 541L944 541C928 541 896 541 864 541C832 541 800 541 768 541C736 541 704 541 672 541C640 541 608 541 576 541C544 541 512 541 480 541C448 541 416 541 384 541C352 541 320 541 288 541C256 541 224 541 192 541C160 541 128 541 96 541C64 541 32 541 16 541L0 541Z" fill="#84b3e9"></path><path d="M0 228L16 233.2C32 238.3 64 248.7 96 246.3C128 244 160 229 192 238C224 247 256 280 288 276.2C320 272.3 352 231.7 384 228.5C416 225.3 448 259.7 480 279.2C512 298.7 544 303.3 576 300.3C608 297.3 640 286.7 672 275.5C704 264.3 736 252.7 768 248.3C800 244 832 247 864 248.3C896 249.7 928 249.3 944 249.2L960 249L960 541L944 541C928 541 896 541 864 541C832 541 800 541 768 541C736 541 704 541 672 541C640 541 608 541 576 541C544 541 512 541 480 541C448 541 416 541 384 541C352 541 320 541 288 541C256 541 224 541 192 541C160 541 128 541 96 541C64 541 32 541 16 541L0 541Z" fill="#5b8fd4"></path><path d="M0 329L16 333.7C32 338.3 64 347.7 96 341.5C128 335.3 160 313.7 192 309C224 304.3 256 316.7 288 332.7C320 348.7 352 368.3 384 375.5C416 382.7 448 377.3 480 379C512 380.7 544 389.3 576 393.7C608 398 640 398 672 398.3C704 398.7 736 399.3 768 389.8C800 380.3 832 360.7 864 361C896 361.3 928 381.7 944 391.8L960 402L960 541L944 541C928 541 896 541 864 541C832 541 800 541 768 541C736 541 704 541 672 541C640 541 608 541 576 541C544 541 512 541 480 541C448 541 416 541 384 541C352 541 320 541 288 541C256 541 224 541 192 541C160 541 128 541 96 541C64 541 32 541 16 541L0 541Z" fill="#356bbd"></path><path d="M0 437L16 427.3C32 417.7 64 398.3 96 388.8C128 379.3 160 379.7 192 390C224 400.3 256 420.7 288 432.5C320 444.3 352 447.7 384 438.3C416 429 448 407 480 406.7C512 406.3 544 427.7 576 437.5C608 447.3 640 445.7 672 441.7C704 437.7 736 431.3 768 422.8C800 414.3 832 403.7 864 406.2C896 408.7 928 424.3 944 432.2L960 440L960 541L944 541C928 541 896 541 864 541C832 541 800 541 768 541C736 541 704 541 672 541C640 541 608 541 576 541C544 541 512 541 480 541C448 541 416 541 384 541C352 541 320 541 288 541C256 541 224 541 192 541C160 541 128 541 96 541C64 541 32 541 16 541L0 541Z" fill="#0049a5"></path></svg>