<svg id="visual" viewBox="0 0 960 540" width="960" height="540" xmlns="http://www.w3.org/2000/svg" xmlns:xlink="http://www.w3.org/1999/xlink" version="1.1"><rect x="0" y="0" width="960" height="540" fill="#f8f8f8"></rect><path d="M0 260L17.8 266.3C35.7 272.7 71.3 285.3 106.8 304C142.3 322.7 177.7 347.3 213.2 340C248.7 332.7 284.3 293.3 320 283.5C355.7 273.7 391.3 293.3 426.8 307.2C462.3 321 497.7 329 533.2 322.2C568.7 315.3 604.3 293.7 640 298.5C675.7 303.3 711.3 334.7 746.8 329.3C782.3 324 817.7 282 853.2 261.5C888.7 241 924.3 242 942.2 242.5L960 243L960 541L942.2 541C924.3 541 888.7 541 853.2 541C817.7 541 782.3 541 746.8 541C711.3 541 675.7 541 640 541C604.3 541 568.7 541 533.2 541C497.7 541 462.3 541 426.8 541C391.3 541 355.7 541 320 541C284.3 541 248.7 541 213.2 541C177.7 541 142.3 541 106.8 541C71.3 541 35.7 541 17.8 541L0 541Z" fill="#4b78ad"></path><path d="M0 377L17.8 371C35.7 365 71.3 353 106.8 358C142.3 363 177.7 385 213.2 401.7C248.7 418.3 284.3 429.7 320 434C355.7 438.3 391.3 435.7 426.8 418.2C462.3 400.7 497.7 368.3 533.2 352.8C568.7 337.3 604.3 338.7 640 349.3C675.7 360 711.3 380 746.8 378.2C782.3 376.3 817.7 352.7 853.2 339.8C888.7 327 924.3 325 942.2 324L960 323L960 541L942.2 541C924.3 541 888.7 541 853.2 541C817.7 541 782.3 541 746.8 541C711.3 541 675.7 541 640 541C604.3 541 568.7 541 533.2 541C497.7 541 462.3 541 426.8 541C391.3 541 355.7 541 320 541C284.3 541 248.7 541 213.2 541C177.7 541 142.3 541 106.8 541C71.3 541 35.7 541 17.8 541L0 541Z" fill="#3469ac"></path><path d="M0 446L17.8 448.8C35.7 451.7 71.3 457.3 106.8 444.3C142.3 431.3 177.7 399.7 213.2 393.8C248.7 388 284.3 408 320 404.8C355.7 401.7 391.3 375.3 426.8 382.7C462.3 390 497.7 431 533.2 446.2C568.7 461.3 604.3 450.7 640 446.7C675.7 442.7 711.3 445.3 746.8 448.3C782.3 451.3 817.7 454.7 853.2 453.8C888.7 453 924.3 448 942.2 445.5L960 443L960 541L942.2 541C924.3 541 888.7 541 853.2 541C817.7 541 782.3 541 746.8 541C711.3 541 675.7 541 640 541C604.3 541 568.7 541 533.2 541C497.7 541 462.3 541 426.8 541C391.3 541 355.7 541 320 541C284.3 541 248.7 541 213.2 541C177.7 541 142.3 541 106.8 541C71.3 541 35.7 541 17.8 541L0 541Z" fill="#1c59a9"></path><path d="M0 498L17.8 493.5C35.7 489 71.3 480 106.8 466C142.3 452 177.7 433 213.2 423C248.7 413 284.3 412 320 426.8C355.7 441.7 391.3 472.3 426.8 483.2C462.3 494 497.7 485 533.2 475.3C568.7 465.7 604.3 455.3 640 450.8C675.7 446.3 711.3 447.7 746.8 455C782.3 462.3 817.7 475.7 853.2 478C888.7 480.3 924.3 471.7 942.2 467.3L960 463L960 541L942.2 541C924.3 541 888.7 541 853.2 541C817.7 541 782.3 541 746.8 541C711.3 541 675.7 541 640 541C604.3 541 568.7 541 533.2 541C497.7 541 462.3 541 426.8 541C391.3 541 355.7 541 320 541C284.3 541 248.7 541 213.2 541C177.7 541 142.3 541 106.8 541C71.3 541 35.7 541 17.8 541L0 541Z" fill="#0049a5"></path></svg>